# xmcd
# Track frame offsets:
# 150
# 20241
# 36229
# 53057
# 69215
# 86341
# 103548
# 120059
# 137759
# 157226
# 173200
# 189843
# 208734
# 224288
# 240456
#
# Disc length: 3436 seconds
# Revision: 0
# Processed by: cddbd v1.5.1PL0 Copyright (c) Steve Scherf et al.
# Submitted via: VisiTrax 2.9.10.228 - For more info visit www.synapsa.com
#
DISCID=c70d6a0f
DTITLE=Alabama - CB90001
DYEAR=1900
DGENRE=Karaoke
TTITLE0=My Home's In Alabama
TTITLE1=Why Lady Why
TTITLE2=Old Flame
TTITLE3=Close Enough To Perfect
TTITLE4=Dixieland Delight
TTITLE5=Roll On Eighteen Wheeler
TTITLE6=If You're Gonna Play In Texas
TTITLE7=Fire In The Night
TTITLE8=There's No Way
TTITLE9=Forty Hour Week
TTITLE10=Can't Keep A Good Man Down
TTITLE11=She And I
TTITLE12=Song Of The South
TTITLE13=If I Had You
TTITLE14=Pass It On Down
EXTD=
EXTT0=
EXTT1=
EXTT2=
EXTT3=
EXTT4=
EXTT5=
EXTT6=
EXTT7=
EXTT8=
EXTT9=
EXTT10=
EXTT11=
EXTT12=
EXTT13=
EXTT14=
PLAYORDER=
